<svg width="32" height="32" viewBox="0 0 32 32" fill="none" xmlns="http://www.w3.org/2000/svg">
<g filter="url(#filter0_i)">
<path fill-rule="evenodd" clip-rule="evenodd" d="M10 0H22C27.522 0 32 4.478 32 10V22C32 27.522 27.522 32 22 32H10C4.478 32 0 27.522 0 22V10C0 4.478 4.478 0 10 0ZM22 29C25.86 29 29 25.86 29 22V10C29 6.14 25.86 3 22 3H10C6.14 3 3 6.14 3 10V22C3 25.86 6.14 29 10 29H22Z" fill="white"/>
<path fill-rule="evenodd" clip-rule="evenodd" d="M8 16C8 11.582 11.582 8 16 8C20.418 8 24 11.582 24 16C24 20.418 20.418 24 16 24C11.582 24 8 20.418 8 16ZM11 16C11 18.756 13.244 21 16 21C18.756 21 21 18.756 21 16C21 13.242 18.756 11 16 11C13.244 11 11 13.242 11 16Z" fill="white"/>
<circle cx="24.6" cy="7.39998" r="1.066" fill="white"/>
</g>
<defs>
<filter id="filter0_i" x="0" y="0" width="32" height="36" filterUnits="userSpaceOnUse" color-interpolation-filters="sRGB">
<feFlood flood-opacity="0" result="BackgroundImageFix"/>
<feBlend mode="normal" in="SourceGraphic" in2="BackgroundImageFix" result="shape"/>
<feColorMatrix in="SourceAlpha" type="matrix" values="0 0 0 0 0 0 0 0 0 0 0 0 0 0 0 0 0 0 127 0" result="hardAlpha"/>
<feOffset dy="4"/>
<feGaussianBlur stdDeviation="2"/>
<feComposite in2="hardAlpha" operator="arithmetic" k2="-1" k3="1"/>
<feColorMatrix type="matrix" values="0 0 0 0 0 0 0 0 0 0 0 0 0 0 0 0 0 0 0.25 0"/>
<feBlend mode="normal" in2="shape" result="effect1_innerShadow"/>
</filter>
</defs>
</svg>
