<svg width="40" height="40" viewBox="0 0 40 40" fill="none" xmlns="http://www.w3.org/2000/svg">
<g filter="url(#filter0_d)">
<path fill-rule="evenodd" clip-rule="evenodd" d="M14 0H26C31.522 0 36 4.478 36 10V22C36 27.522 31.522 32 26 32H14C8.478 32 4 27.522 4 22V10C4 4.478 8.478 0 14 0ZM26 29C29.86 29 33 25.86 33 22V10C33 6.14 29.86 3 26 3H14C10.14 3 7 6.14 7 10V22C7 25.86 10.14 29 14 29H26Z" fill="white"/>
<path fill-rule="evenodd" clip-rule="evenodd" d="M12 16C12 11.582 15.582 8 20 8C24.418 8 28 11.582 28 16C28 20.418 24.418 24 20 24C15.582 24 12 20.418 12 16ZM15 16C15 18.756 17.244 21 20 21C22.756 21 25 18.756 25 16C25 13.242 22.756 11 20 11C17.244 11 15 13.242 15 16Z" fill="white"/>
<circle cx="28.6" cy="7.39998" r="1.066" fill="white"/>
</g>
<defs>
<filter id="filter0_d" x="0" y="0" width="40" height="40" filterUnits="userSpaceOnUse" color-interpolation-filters="sRGB">
<feFlood flood-opacity="0" result="BackgroundImageFix"/>
<feColorMatrix in="SourceAlpha" type="matrix" values="0 0 0 0 0 0 0 0 0 0 0 0 0 0 0 0 0 0 127 0" result="hardAlpha"/>
<feOffset dy="4"/>
<feGaussianBlur stdDeviation="2"/>
<feComposite in2="hardAlpha" operator="out"/>
<feColorMatrix type="matrix" values="0 0 0 0 0 0 0 0 0 0 0 0 0 0 0 0 0 0 0.25 0"/>
<feBlend mode="normal" in2="BackgroundImageFix" result="effect1_dropShadow"/>
<feBlend mode="normal" in="SourceGraphic" in2="effect1_dropShadow" result="shape"/>
</filter>
</defs>
</svg>
