<svg width="183" height="32" fill="none" xmlns="http://www.w3.org/2000/svg"><path fill-rule="evenodd" clip-rule="evenodd" d="M178.778 23.074h-.923v2.664h-.44v-2.664h-.924v-.32h2.287v.32zm2.075 1.885h.014l.831-2.205h.684v2.984h-.439V23.25h-.013l-.93 2.488h-.304l-.921-2.488h-.017v2.488h-.441v-2.984h.693l.843 2.205zm-91.58-4.874c-.17.386-1.072 2.127-3.336 2.127-2.62 0-3.639-2.17-3.639-3.787 0-2.669 1.796-5.068 4.444-5.068 2.846 0 3.525 2.12 3.587 2.506h4.197c.247-1.563-.995-6.352-7.624-6.352-4.856 0-8.728 3.87-8.728 9.047 0 4.235 2.647 7.5 7.555 7.5 6.109 0 7.758-4.792 7.97-5.973h-4.426zm-32.147 1.169c0-.244.065-.707.277-1.68.217-.973 3.173-14.606 3.173-14.606h-3.931l-3.262 15.035a8.543 8.543 0 00-.197 1.809c0 3.294 2.548 4.263 4.598 4.263.73 0 1.406-.116 1.57-.144.072-.326.687-3.16.714-3.286-.09.013-.516.044-1.021.044-1.46 0-1.921-.621-1.921-1.435zM112.959 9.56h-5.484l-7.041 6.346 2.371-10.97h-3.951L94.35 25.742h3.962l1.092-5.058 2.436-1.932 3.364 6.99h4.404l-4.773-9.362 8.124-6.82zm-77.442 9.755c.332-1.49 3.117-14.376 3.117-14.376h7.496c5.435 0 6.77 3.02 6.77 4.855 0 4.054-3.831 5.13-4.3 5.275.433.142 2.924 1.13 2.924 4.316 0 3.459-3.195 6.36-8.149 6.36h-2.258c-4.158 0-6.395-2.849-5.6-6.43zm11.73-.257c0-.98-.63-2.217-3.43-2.217h-3.63l-1.089 5.033h4.116c2.66 0 4.033-1.201 4.033-2.816zm1.344-8.383c0-1.016-.766-1.885-2.66-1.885h-4.003l-.91 4.202h4.176c2.25 0 3.397-1.084 3.397-2.317zm62.565 8.64c.334-1.49 3.119-14.376 3.119-14.376h7.493c5.436 0 6.776 3.02 6.776 4.855 0 4.054-3.831 5.13-4.304 5.275.434.142 2.927 1.13 2.927 4.316 0 3.459-3.194 6.36-8.148 6.36h-2.262c-4.154 0-6.387-2.849-5.601-6.43zm11.732-.257c0-.98-.632-2.217-3.428-2.217h-3.63l-1.087 5.033h4.111c2.663 0 4.034-1.201 4.034-2.816zm1.346-8.383c0-1.016-.769-1.885-2.657-1.885h-4.008l-.905 4.202h4.173c2.25 0 3.397-1.084 3.397-2.317zm31.488-1.107c-4.191 0-7.04 2.485-8.007 7.144-.407 2.005-1.934 9.047-1.934 9.047h3.932s1.445-6.697 1.904-8.804c.597-2.751 2.058-3.693 4.018-3.693.633 0 1.036.074 1.245.108.112-.562.656-3.047.786-3.657-.422-.054-1.094-.145-1.944-.145zm13.376 22.382l13.186-22.382h-4.244l-6.059 10.533-1.419-10.543h-4.539c-5.197 0-7.893 2.381-8.851 6.931-.48 2.267-2.001 9.27-2.001 9.27h3.929s1.443-6.648 2.021-9.326c.55-2.604 2.482-3.407 4.564-2.962l.83-3.821c.61 3.629 2.485 15.224 2.485 15.224l-4.113 7.075h4.211zM68.473 18.849c.868-.125 3.404-.513 3.744-.56-.064.269-.162.696-.24 1.016-.457 1.956-2.45 3.216-4.647 3.216-1.401 0-2.225-.756-2.225-1.657 0-.735.681-1.611 3.368-2.015zm-1.466-4.214c.094-.156 1.106-1.72 3.625-1.72 1.566 0 2.368.577 2.368 1.265 0 .979-1.579 1.235-4.308 1.627-4.7.672-7.668 2.133-7.668 5.523 0 2.405 1.993 4.745 5.54 4.745 2.95 0 4.489-1.776 4.624-1.91.013.427.07 1.064.112 1.578h4.068c-.149-.702-.433-2.045.047-4.196.256-1.14.977-4.402 1.343-6.205.69-3.403-1.177-5.813-5.973-5.813-6.156 0-7.927 4.43-8.218 5.106h4.44zm72.989 6.266c-.139.316-1.091 1.65-3.233 1.65-3.076 0-3.777-2.608-3.7-3.325h11.983c.066-.295.336-1.362.336-2.459 0-3.786-2.568-7.256-7.754-7.256-4.742 0-8.542 3.984-8.542 8.722 0 4.577 2.749 7.824 7.614 7.824 6.011 0 7.63-4.712 7.781-5.156h-4.485zm-2.325-7.797c2.649 0 3.659 1.615 3.552 2.912h-7.574c.198-.826 1.462-2.912 4.022-2.912zM10.653 2.567c0-1.001-.614-2.265-3.18-2.265H3.514l-1.118 5.2h4.115c3.224 0 4.142-1.523 4.142-2.935zm10.649 0c0-1.001-.61-2.265-3.18-2.265h-3.95l-1.124 5.2h4.117c3.223 0 4.137-1.523 4.137-2.935zM9.225 10.39c0-1-.613-2.258-3.183-2.258H2.09L.965 13.323H5.09c3.215 0 4.135-1.521 4.135-2.932zm10.65 0c0-1-.611-2.258-3.177-2.258h-3.956l-1.123 5.191h4.117c3.222 0 4.139-1.521 4.139-2.932zm11.144-3.171c0-1-.608-2.265-3.176-2.265h-3.955l-1.126 5.2h4.119c3.222 0 4.138-1.523 4.138-2.935zm-1.534 8.147c0-.997-.611-2.265-3.18-2.265H22.35L21.229 18.3h4.12c3.218 0 4.136-1.52 4.136-2.934zm-11.142 3.171c0-.998-.608-2.264-3.173-2.264h-3.96l-1.122 5.201h4.127c3.214 0 4.128-1.52 4.128-2.937z" fill="#6994A8"/></svg>