<svg width="40" height="40" fill="none" xmlns="http://www.w3.org/2000/svg"><g filter="url(#filter0_d)" fill="#fff"><path fill-rule="evenodd" clip-rule="evenodd" d="M14 0h12c5.522 0 10 4.478 10 10v12c0 5.522-4.478 10-10 10H14C8.478 32 4 27.522 4 22V10C4 4.478 8.478 0 14 0zm12 29c3.86 0 7-3.14 7-7V10c0-3.86-3.14-7-7-7H14c-3.86 0-7 3.14-7 7v12c0 3.86 3.14 7 7 7h12z"/><path fill-rule="evenodd" clip-rule="evenodd" d="M12 16a8 8 0 1116 0 8 8 0 01-16 0zm3 0c0 2.756 2.244 5 5 5s5-2.244 5-5c0-2.758-2.244-5-5-5s-5 2.242-5 5z"/><circle cx="28.6" cy="7.4" r="1.066"/></g><defs><filter id="filter0_d" x="0" y="0" width="40" height="40" filterUnits="userSpaceOnUse" color-interpolation-filters="sRGB"><feFlood flood-opacity="0" result="BackgroundImageFix"/><feColorMatrix in="SourceAlpha" values="0 0 0 0 0 0 0 0 0 0 0 0 0 0 0 0 0 0 127 0" result="hardAlpha"/><feOffset dy="4"/><feGaussianBlur stdDeviation="2"/><feComposite in2="hardAlpha" operator="out"/><feColorMatrix values="0 0 0 0 0 0 0 0 0 0 0 0 0 0 0 0 0 0 0.25 0"/><feBlend in2="BackgroundImageFix" result="effect1_dropShadow"/><feBlend in="SourceGraphic" in2="effect1_dropShadow" result="shape"/></filter></defs></svg>