<svg width="32" height="32" fill="none" xmlns="http://www.w3.org/2000/svg"><g filter="url(#filter0_i)" fill="#fff"><path fill-rule="evenodd" clip-rule="evenodd" d="M10 0h12c5.522 0 10 4.478 10 10v12c0 5.522-4.478 10-10 10H10C4.478 32 0 27.522 0 22V10C0 4.478 4.478 0 10 0zm12 29c3.86 0 7-3.14 7-7V10c0-3.86-3.14-7-7-7H10c-3.86 0-7 3.14-7 7v12c0 3.86 3.14 7 7 7h12z"/><path fill-rule="evenodd" clip-rule="evenodd" d="M8 16a8 8 0 1116 0 8 8 0 01-16 0zm3 0c0 2.756 2.244 5 5 5s5-2.244 5-5c0-2.758-2.244-5-5-5s-5 2.242-5 5z"/><circle cx="24.6" cy="7.4" r="1.066"/></g><defs><filter id="filter0_i" x="0" y="0" width="32" height="36" filterUnits="userSpaceOnUse" color-interpolation-filters="sRGB"><feFlood flood-opacity="0" result="BackgroundImageFix"/><feBlend in="SourceGraphic" in2="BackgroundImageFix" result="shape"/><feColorMatrix in="SourceAlpha" values="0 0 0 0 0 0 0 0 0 0 0 0 0 0 0 0 0 0 127 0" result="hardAlpha"/><feOffset dy="4"/><feGaussianBlur stdDeviation="2"/><feComposite in2="hardAlpha" operator="arithmetic" k2="-1" k3="1"/><feColorMatrix values="0 0 0 0 0 0 0 0 0 0 0 0 0 0 0 0 0 0 0.25 0"/><feBlend in2="shape" result="effect1_innerShadow"/></filter></defs></svg>