<svg width="173" height="32" fill="none" xmlns="http://www.w3.org/2000/svg"><path fill-rule="evenodd" clip-rule="evenodd" d="M123.283 3.22h-3.763V0h3.763v3.22zM0 0v23.132h3.765V2.218H7.25s2.532 0 3.4 1.086c.736.922.87 2.596.87 3.726 0 1.21-.08 3.078-.502 3.762-.643 1.046-1.697 1.255-2.66 1.255H6.056V14.1h3.308s2.985.12 4.269-1.132c1.574-1.534 1.973-3.597 1.973-6.358 0-2.51-.949-5.04-2.889-5.9C11.112 0 8.216 0 8.216 0H0zm18.567 23.133h3.764V0h-3.764v23.132zm30.683-.422L42.36 5.396h4.382l4.615 12.967L56.32 5.396h3.49L48.42 32h-3.125l3.955-9.29zm13.393.284V20.81s3.982.15 4.811.15c1.838 0 2.755-.376 3.446-1.086.408-.426.776-2.313.776-2.986 0-.67-.135-2.119-.408-2.712-.282-.582-.924-1.125-1.886-1.203-.198-.017-.428-.04-.685-.065-.63-.063-1.42-.14-2.301-.18-1.739-.079-2.888-.949-3.441-1.574-.55-.626-1.284-1.569-1.284-4.453 0-2.888.779-4.507 1.56-5.258.78-.755 1.923-1.086 2.8-1.236 1.01-.165 2.66-.175 2.66-.175l5.27.147v2.186s-3.842-.147-4.669-.147c-1.838 0-2.389.378-3.077 1.086-.406.422-.724 1.589-.724 2.257 0 .672.082 2.028.358 2.615.273.582.917 1.127 1.881 1.21.223.016.485.041.78.07.614.059 1.37.131 2.205.168 1.746.079 2.893.947 3.44 1.575.554.627 1.29 1.95 1.29 4.831 0 2.889-.785 4.952-1.561 5.705-.783.75-1.924 1.086-2.801 1.231-1.013.167-2.662.18-2.662.18l-5.778-.15zm16.78-20.778h3.763v3.18h4.252v2.175h-4.252v10s0 1.25.141 2.295c.133 1.047.916 1.088 1.562 1.088.638 0 1.694-.073 1.694-.073v2.178l-3.9.073c-2.157 0-2.984-1.294-3.077-1.84-.093-.544-.183-2.094-.183-2.094V2.217zm40.097 20.916h3.763V5.397h-3.763v17.736zm15.658-17.888c2.562 0 4.549.549 5.615 1.376 1.078.83 2.401 2.58 2.401 7.644 0 5.065-1.323 6.813-2.401 7.645-1.067.827-3.053 1.38-5.615 1.38-2.568 0-4.546-.553-5.621-1.38-1.075-.832-2.393-2.58-2.393-7.645 0-5.064 1.318-6.814 2.393-7.644 1.075-.827 3.053-1.376 5.621-1.376zm-3.729 9.02c0-3.722.631-5.007 1.149-5.62v.001c.516-.608 1.467-1.014 2.698-1.014 1.233 0 2.18.407 2.703 1.014.515.611 1.146 1.897 1.146 5.62 0 3.72-.631 5.007-1.146 5.617-.523.605-1.47 1.015-2.703 1.015-1.231 0-2.182-.41-2.698-1.015-.518-.61-1.149-1.897-1.149-5.618zm19.543-6.378l3.692-.15c.965 0 2.102.25 2.654.921.513.632.837 1.385.837 2.598v11.857h3.769V10.957c0-2.299-.738-3.635-1.845-4.475-1.579-1.2-4.407-1.086-4.407-1.086l-8.433.145v17.572h3.733V7.887zm-42.734-5.67h3.765v3.18h4.241v2.175h-4.241v10s0 1.25.135 2.295c.137 1.047.922 1.088 1.562 1.088.639 0 1.698-.073 1.698-.073v2.178l-3.899.073c-2.166 0-2.987-1.294-3.081-1.84-.091-.544-.18-2.094-.18-2.094V2.217zm-71.64 9.039c0-1.213-.322-1.966-.84-2.598-.551-.67-1.683-.92-2.652-.92l-4.965.149V5.54l5.976-.145s2.828-.115 4.409 1.086c1.102.84 1.835 2.176 1.835 4.475v11.986l-7.215.15s-3.266.01-4.912-.628c-1.604-.626-2.479-2.344-2.479-4.728 0-2.3.735-3.637 1.837-4.477 1.58-1.203 4.407-1.084 4.407-1.084h2.305v2.043H33.03c-.968 0-1.963.172-2.517.842-.515.625-.791 1.169-.791 2.382 0 1.592.322 2.302 1.103 2.844.69.482 1.926.587 3.304.587l2.488-.145v-9.473zm62.647-2.598c.518.632.833 1.385.833 2.598l.001 9.473-2.482.145c-1.378 0-2.62-.105-3.308-.587-.779-.542-1.103-1.252-1.103-2.844 0-1.213.278-1.757.796-2.382.547-.67 1.549-.842 2.51-.842h1.295v-2.043h-2.303s-2.832-.119-4.41 1.084c-1.097.84-1.838 2.176-1.838 4.477 0 2.384.877 4.102 2.483 4.728 1.642.639 4.912.627 4.912.627l7.215-.149V10.957c0-2.299-.736-3.635-1.839-4.475-1.579-1.201-4.405-1.086-4.405-1.086l-5.971.145v2.346l4.963-.15c.961 0 2.093.25 2.651.921zm69.502 14.62a3.75 3.75 0 002.602-1.03 3.445 3.445 0 001.075-2.494 3.44 3.44 0 00-1.075-2.495 3.743 3.743 0 00-2.602-1.03c-2.018 0-3.674 1.581-3.674 3.525 0 .94.379 1.827 1.079 2.495a3.748 3.748 0 002.595 1.03zm-2.161-5.597a2.866 2.866 0 00-.896 2.073h-.001c0 .778.322 1.525.897 2.075.573.55 1.35.86 2.161.86 1.69 0 3.061-1.318 3.061-2.935a2.87 2.87 0 00-.897-2.073 3.114 3.114 0 00-2.164-.862c-.811 0-1.589.31-2.161.862z" fill="#6994A8"/><path fill-rule="evenodd" clip-rule="evenodd" d="M170.488 20.947c.024.083.068.138.124.156l.055.022v.208h-.819l-.03-.044c-.019-.027-.029-.059-.041-.096l-.014-.039a1.806 1.806 0 01-.031-.278l-.032-.568c-.009-.193-.09-.319-.241-.38-.089-.034-.246-.053-.455-.053h-1.16v1.458h-.733v-3.555h1.971c.323 0 .587.036.806.119.412.155.624.452.624.873 0 .22-.057.4-.164.543a1.01 1.01 0 01-.321.26.784.784 0 01.251.174c.092.103.147.257.156.473l.017.459c.001.09.014.18.037.268zm-.904-1.73c.118-.072.179-.204.179-.403 0-.21-.082-.351-.258-.425-.1-.04-.24-.06-.407-.06h-1.254v1.005h1.181c.236 0 .424-.041.559-.117z" fill="#6994A8"/></svg>