<svg width="111" height="26" fill="none" xmlns="http://www.w3.org/2000/svg"><path fill-rule="evenodd" clip-rule="evenodd" d="M110.77 0h-4.7v25.223h4.7V0zM.77 25.223V.486l6.113.001c5.822 0 10.189 1.669 10.189 7.898 0 6.23-5.78 6.724-5.78 6.724l7.027 10.114h-5.905l-5.033-7.887v-5.693h1.207s3.285.083 3.285-3.26c0-3.34-3.7-3.176-3.7-3.176H5.801v20.016H.77zM76.542 7.134c0 3.222-2.203 4.923-2.203 4.923 2.685 1.074 4.199 2.555 4.198 6.422 0 6.66-7.43 6.744-7.43 6.744H60.74V1.004h8.416c5.026 0 7.386 2.907 7.386 6.13zm-6.258 13.874h-4.512V5.228h2.411s3.278-.245 3.278 2.591c0 2.837-2.607 2.586-2.607 2.586h-1.502v4.252h2.93c.769 0 3.217.37 3.217 3.163 0 2.793-3.215 3.188-3.215 3.188zM97.982 0h4.761v25.223h-4.761V0zM84.777 10.447h-4.823v8.579C79.947 20.284 79.925 26 87.77 26c8.027 0 7.403-6.807 7.403-6.807v-8.706h-4.865v8.417s.04 2.847-2.662 2.847-2.87-2.848-2.87-2.848v-8.456zM47.973 0v11.438s-2.33-1.774-4.992-1.774c-2.66 0-7.152 1.857-7.152 7.714 0 5.858 3.826 8.087 7.111 8.087 3.286 0 5.116-2.146 5.116-2.146v1.905h4.74V0h-4.823zm-3.669 21.337h.008c.25 0 3.868-.123 3.868-3.836s-3.827-3.836-3.827-3.836-3.41.123-3.41 3.92c0 3.757 3.06 3.753 3.361 3.752zM26.346 9.664c8.068 0 7.735 7.797 7.735 7.797v1.237H23.144c0 1.773 1.497 3.3 3.535 3.3 2.038 0 3.078-1.939 3.078-1.939l3.867 1.897c-1.788 2.683-4.2 3.754-6.903 3.754-8.401 0-8.568-6.93-8.568-7.796 0-.867.126-8.25 8.193-8.25zm2.87 6.187h-5.99s.334-2.805 3.038-2.805c2.703 0 2.952 2.805 2.952 2.805z" fill="#6994A8"/></svg>