<svg width="243" height="25" fill="none" xmlns="http://www.w3.org/2000/svg"><path fill-rule="evenodd" clip-rule="evenodd" d="M19.306 21.549C17.227 24.966 15.284 25 12.903 25H.77v-4.838h3.787c2.514 0 4.525-1.285 5.598-3.112l8.112-13.6C20.312.034 22.256 0 24.635 0H36.77v4.804h-3.788c-2.514 0-4.526 1.285-5.597 3.146l-8.08 13.599zM17.864 25H36.77V5.886h-2.346v16.711h-14.38c-.704 1.118-1.442 1.895-2.18 2.403zm1.81-25H.77v19.113h2.346V2.368h14.38C18.233 1.25 18.97.507 19.673 0zm211.029 8.033h3.855c.837 0 1.541.659 1.541 1.515 0 .825-.704 1.517-1.541 1.517h-3.855V8.033zm2.814 6h-2.814v5.966h-6.604V5h13.776c1.743 0 4.124 1.318 4.424 4.086.168 1.749-.536 3.364-2.949 4.485l3.42 6.428h-5.968l-3.285-5.966zM131.219 5h6.672v5.703h5.261V5h6.636v14.999h-6.636v-5.67h-5.261V20h-6.672V5zm43.876 15h6.637V5h-6.637v15zM115.768 5h-6.906v14.999h3.152v-9.296l6.268 9.296h6.905V5h-3.152v9.33L115.768 5zM94.114 5H87.21v14.999h3.117v-9.296l6.269 9.296h6.938V5h-3.151v9.33L94.114 5zm61.977 0h13.441v3.164h-6.871v2.868h6.871v2.966h-6.871v2.804h6.871v3.197h-13.441V5zm48.702 0h13.441v3.164h-6.872v2.868h6.872v2.966h-6.872v2.804h6.872v3.197h-13.441V5zM68.071 5h13.44v3.164H74.64v2.868h6.872v2.966H74.64v2.804h6.872v3.197H68.07V5zm131.392 9.989c1.107 1.449.738 5.01-2.748 5.01h-9.888v-3.066h4.392c.803 0 .938-.758.468-1.418l-4.122-5.505c-1.14-1.45-.772-5.01 2.714-5.01h9.888v3.033h-4.356c-.839 0-.972.79-.471 1.417l4.123 5.539zm-137.09 0c1.106 1.449.737 5.01-2.715 5.01H49.77v-3.066h4.358c.837 0 .971-.758.47-1.418l-4.124-5.505C49.368 8.56 49.736 5 53.222 5h9.854v3.033H58.72c-.805 0-.94.79-.436 1.417l4.088 5.539z" fill="#6994A8"/></svg>