<svg width="60" height="60" xmlns="http://www.w3.org/2000/svg"><g id="Screens" stroke="none" stroke-width="1" fill="none" fill-rule="evenodd"><g id="Player" transform="translate(-158 -510)" fill="#FFF"><g id="Controls" transform="translate(24 504)"><g id="Play" transform="translate(128)"><path d="M36 6C19.44 6 6 19.44 6 36c0 16.56 13.44 30 30 30 16.56 0 30-13.44 30-30C66 19.44 52.56 6 36 6zm0 54c-13.23 0-24-10.77-24-24s10.77-24 24-24 24 10.77 24 24-10.77 24-24 24zm9.945-24.051L29 47.897V24l16.945 11.949z" id="Shape"/></g></g></g></g></svg>