<svg width="236" height="20" fill="none" xmlns="http://www.w3.org/2000/svg"><path fill-rule="evenodd" clip-rule="evenodd" d="M14.488 0c3.545 0 6.063.446 7.55 1.337 1.49.89 2.235 2.507 2.235 4.85 0 1.3-.457 2.447-1.367 3.437-.91.99-2.238 1.576-3.982 1.756 1.685 0 2.938.355 3.761 1.062.824.708 1.234 1.71 1.234 3.004v4.553h-6.14v-3.925c0-.872-.353-1.475-1.058-1.81-.706-.334-1.753-.502-3.145-.502h-7.64v6.236H0V0h14.488zm221.455 7.42l.057 3.35c0 2.956-.688 5.235-2.056 6.832-1.373 1.6-4.153 2.398-8.345 2.398h-15.602V0h14.633c3.918 0 6.782.585 8.595 1.75 1.813 1.165 2.718 3.057 2.718 5.67zm-7.289 7.345c-.725.837-2.36 1.253-4.908 1.253v-.001h-7.698V4.363h8.052c2.194 0 3.682.283 4.464.847.785.563 1.177 1.409 1.177 2.536v2.989c0 1.852-.363 3.195-1.087 4.03zM197.4 0l10.108 20h-6.202l-1.881-3.74h-12.283L185.353 20h-6.378l9.933-20h8.492zm.177 11.942h-8.55l4.228-8.345 4.322 8.345zm-20.588 3.837V20h-20.435V0h20.287v4.413h-14.429v3.404h13.753v3.835h-13.753v4.125h14.577v.002zM151.901 20V0h-6.141v7.626h-13.192V0h-6.052v20h6.052v-8.058h13.192V20h6.141zM122.605 6.015v7.7c0 2.044-.927 3.604-2.777 4.675-1.851 1.073-3.932 1.61-6.244 1.61h-2.41c-2.175 0-3.599-.005-4.275-.008a60.612 60.612 0 01-1.778-.04c-2.213 0-4.129-.56-5.745-1.68-1.616-1.123-2.424-2.647-2.424-4.57V6.01c0-1.743.832-3.18 2.496-4.31 1.666-1.134 3.448-1.7 5.348-1.7h9.05c2.351 0 4.398.532 6.142 1.594 1.745 1.063 2.617 2.537 2.617 4.42zm-6.17 2.19v3.62c0 1.377-.359 2.403-1.072 3.08-.716.678-1.906 1.015-3.57 1.015h-4.878c-1.334 0-2.312-.357-2.94-1.074-.627-.72-.941-1.729-.941-3.023v-3.77c0-1.335.317-2.371.955-3.11.636-.737 1.611-1.106 2.925-1.106h4.877c1.646 0 2.83.384 3.556 1.151.724.767 1.088 1.84 1.088 3.216zM92.619 0v20H86.9V0h5.719zm-9.65 10.77l-.059-3.35c0-2.613-.904-4.505-2.717-5.67C78.38.585 75.517 0 71.598 0H56.964v20h15.603c4.193 0 6.975-.799 8.346-2.398 1.37-1.597 2.056-3.876 2.056-6.833zm-12.252 5.248c2.546 0 4.181-.416 4.906-1.254.726-.834 1.087-2.177 1.087-4.03V7.747c0-1.127-.392-1.973-1.174-2.536-.785-.564-2.273-.847-4.466-.847h-8.05v11.654h7.698v.001zM54.474 20L44.366 0h-8.492l-9.931 20h6.376l1.792-3.74h12.283l1.88 3.74h6.2zm-18.48-8.058h8.55l-4.32-8.345-4.23 8.345zM17.057 8.953c-.636.33-1.797.495-3.482.495H5.934V4.413h7.994c1.801 0 2.932.185 3.393.554.46.37.691 1.025.691 1.964 0 1.019-.318 1.694-.954 2.022z" fill="#F9F8FF"/></svg>