<svg width="125" height="28" fill="none" xmlns="http://www.w3.org/2000/svg"><path fill-rule="evenodd" clip-rule="evenodd" d="M21.347 0H.635v5.776h6.71v22.108h6.66V5.776h5.428L21.347 0zm34.18 5.776V0h20.712l-1.914 5.776h-5.42v22.108h-6.668V5.776h-6.71zm-29.673.807c1.782-.002 3.226-1.467 3.225-3.274-.002-1.806-1.447-3.27-3.23-3.269-1.782.002-3.226 1.467-3.224 3.274 0 .868.34 1.7.946 2.313a3.203 3.203 0 002.283.956zm3.309 21.3h-6.538V8.896h6.538v18.989zM52.684 6.418h-7.647l-6.591 6.681V.022H31.95l-.02 27.862h6.558v-7.26l2.04-1.884 6.365 9.135h7.011l-9.22-13.359 8-8.1zm70.715 0l-7.994 8.104 9.23 13.354h-7.013l-6.366-9.135-2.06 1.884v7.26h-6.56l.031-27.862h6.494v13.076l6.593-6.681h7.645zM98.594 16.6C98.592 22.895 93.489 28 87.195 28c-6.294 0-11.398-5.106-11.398-11.402 0-6.296 5.103-11.402 11.398-11.402 6.294 0 11.397 5.107 11.399 11.404zm-9.259-5.24c2.09.878 3.452 2.945 3.452 5.238v.004c-.002 3.13-2.505 5.665-5.592 5.665-2.261 0-4.3-1.382-5.166-3.5a5.726 5.726 0 011.212-6.177 5.537 5.537 0 016.094-1.23z" fill="#6994A8"/></svg>